<svg width="56" height="56" viewBox="0 0 56 56" fill="none" xmlns="http://www.w3.org/2000/svg">
<path fill-rule="evenodd" clip-rule="evenodd" d="M6.08668 14.6082H27.9995V12.1734H14.6082V6.08668C14.6082 6.08668 14.6082 0 27.9995 0C41.3908 0 41.3908 6.08668 41.3908 6.08668C41.3908 6.08668 41.4915 16.9265 41.4412 20.6366C41.3908 24.3477 38.9559 26.7816 35.2962 26.7816H20.6959C15.8262 26.7816 12.1743 30.4334 12.1743 35.3031V41.3898H6.08767C6.08767 41.3898 0 41.3908 0 27.9995C0 14.6082 6.08668 14.6082 6.08668 14.6082ZM23.1298 6.08767C23.1298 7.43203 22.0393 8.52253 20.6949 8.52253C19.3505 8.52253 18.26 7.43203 18.26 6.08767C18.26 4.7433 19.3505 3.6528 20.6949 3.6528C22.0393 3.6528 23.1298 4.7433 23.1298 6.08767Z" fill="white"/>
<path fill-rule="evenodd" clip-rule="evenodd" d="M49.9145 41.3908H28.0016V43.8257H41.3929V49.9124C41.3929 49.9124 41.3929 55.9991 28.0016 55.9991C14.6104 55.9991 14.6104 49.9124 14.6104 49.9124V35.3042C14.6104 31.6514 17.0452 29.2175 20.697 29.2175H35.3062C40.176 29.2175 43.8278 25.5657 43.8278 20.6959V14.6093H49.9145C49.9145 14.6093 56.0011 14.6093 56.0011 28.0005C56.0011 41.3918 49.9145 41.3918 49.9145 41.3918V41.3908ZM37.7391 49.9134C37.7391 51.2577 36.6486 52.3482 35.3043 52.3482C33.9599 52.3482 32.8694 51.2577 32.8694 49.9134C32.8694 48.569 33.9599 47.4785 35.3043 47.4785C36.6486 47.4785 37.7391 48.569 37.7391 49.9134Z" fill="white"/>
</svg>
